# xmcd
#
# Track frame offsets:
# 150
# 19733
# 42889
# 63614
# 78142
# 99613
# 117605
# 132846
# 150358
# 168661
# 189450
# 211225
# 226074
#
# Disc length: 3153 seconds
#
#
# Revision: 3
# Processed by: cddbd v1.5.1PL0 Copyright (c) Steve Scherf et al.
# Submitted via: FreeRIP 2.52 
#
DISCID=a40c4f0d
DTITLE=Ryszard Rynkowski - Dary Losu
DYEAR=2000
DGENRE=Blues
TTITLE0=Dary losu
TTITLE1=Jestem z kamienia
TTITLE2=Dziewczyny lubia braz
TTITLE3=Czas
TTITLE4=Za mlodzi, za starzy
TTITLE5=Urodziny
TTITLE6=Blues dla tych, co nie traca ducha
TTITLE7=Gdy mówia pieniadze
TTITLE8=Ten sam kucz
TTITLE9=Nazwij to snem
TTITLE10=Odbijany
TTITLE11=Widzisz Marto
TTITLE12=Swieto
EXTD=YEAR: 2000
EXTT0=
EXTT1=
EXTT2=
EXTT3=
EXTT4=
EXTT5=
EXTT6=
EXTT7=
EXTT8=
EXTT9=
EXTT10=
EXTT11=
EXTT12=
PLAYORDER=
